<svg xmlns="http://www.w3.org/2000/svg" version="1.1" xmlns:xlink="http://www.w3.org/1999/xlink" xmlns:svgjs="http://svgjs.dev/svgjs" width="1000" height="1000" viewBox="0 0 1000 1000"><g transform="matrix(1,0,0,1,0,0)"><svg viewBox="0 0 280 280" data-background-color="#333366" preserveAspectRatio="xMidYMid meet" height="1000" width="1000" xmlns="http://www.w3.org/2000/svg" xmlns:xlink="http://www.w3.org/1999/xlink"><g id="tight-bounds" transform="matrix(1,0,0,1,0,0)"><svg viewBox="0 0 280 280" height="280" width="280"><g><svg viewBox="0 0 280 280" height="280" width="280"><g><svg viewBox="0 0 280 280" height="280" width="280"><g id="textblocktransform"><svg viewBox="0 0 280 280" height="280" width="280" id="textblock"><g><svg viewBox="0 0 280 280" height="280" width="280"><g transform="matrix(1,0,0,1,90.50363210922987,90.50252531694167)"><svg viewBox="0 0 98.99273578154025 98.99494936611666" height="98.99494936611666" width="98.99273578154025"><g><svg xmlns="http://www.w3.org/2000/svg" xmlns:xlink="http://www.w3.org/1999/xlink" version="1.1" x="0" y="0" viewBox="5.303999900817871 5.303999900817871 89.39198303222656 89.39398193359375" enable-background="new 0 0 100 100" xml:space="preserve" height="98.99494936611666" width="98.99273578154025" class="icon-o-0" data-fill-palette-color="accent" id="o-0"><g fill="red" data-fill-palette-color="accent"><path d="M91.716 36.165h-0.107v-6.172h-3.085V23.82h-3.088v-3.086h-3.085v-3.086h-3.086v-3.086h-3.087v-3.086h-3.086V8.39h-9.259V5.304H36.165V8.39h-9.258v3.087h-3.088v3.086h-3.086v3.086h-3.086v3.087h-3.086v3.085h-3.087v6.173H8.389v6.172H5.304v30.756h3.085v6.172h3.086v3.086h3.087v6.173h3.086v3.087h2.98 0.105 2.98 0.105l0 0v3.086h3.088v3.086h9.258v3.086h27.668V91.61h9.259v-3.086h3.086v-3.086h6.173v-3.087h3.085v-6.173h3.088v-3.086h3.085v-6.172h3.088V36.165H91.716zM91.716 46.411v4.664 12.866h-3.087v6.173h-3.085v2.979V73.2h-0.108-2.589-0.39v1.248 1.73 0.107 2.979 0.106h-0.106-1.977-1.003v0.551 2.535h-6.173v3.086h-3.087v3.086h-9.259v3.086H39.146V91.61v-1.178V88.63h-9.26v-0.105V87.55v-2.006h-1.358-1.62-0.108v-0.105-1.49-1.49h-1.488-1.491-0.105-2.98-0.105v-0.106-1.286-1.693h-3.087V73.2h-3.085v-3.086H11.37v-6.173H8.283V39.146l0 0h3.087v-6.172l0 0h0.104 2.981v-6.173l0 0h3.085v-3.086l0 0h3.087v-2.979-0.106l0 0h0.105l0 0h2.98v-2.98-0.105h3.085v-3.087l0 0h3.087v-3.085h9.26V8.284l0 0h21.705l0.002 3.086h9.256l0.003 3.086h3.087v3.087h3.087v3.086h3.086v3.086h3.085l0.001 3.086h3.087v6.173h3.085v6.172h3.087V46.411z" fill="red" data-fill-palette-color="accent"></path><polygon points="42.208,42.341 42.208,39.361 29.697,39.361 29.697,42.341 32.998,42.341 32.998,48.511 39.171,48.511    39.171,42.341  " fill="red" data-fill-palette-color="accent"></polygon><rect x="45.424" y="57.769" width="9.151" height="2.98" fill="red" data-fill-palette-color="accent"></rect><polygon points="70.057,42.305 70.057,39.325 57.546,39.325 57.546,42.305 60.85,42.305 60.85,48.474 67.021,48.474 67.021,42.305     " fill="red" data-fill-palette-color="accent"></polygon></g></svg></g></svg></g><g><path d="M12.31 74.185l-1.003 3.342 24.372 9.856 1.592-3.105 0.299 0.121-3.686 9.114-0.299-0.121 0.938-3.152-22.56-9.123-0.061 0.15 20.127 18.525-0.147 0.365-27.803 0.349-0.061 0.15 20.927 8.462c0.591 0.239 1.036 0.332 1.332 0.278 0.297-0.054 0.56-0.292 0.788-0.713v0l1.355-2.517 0.299 0.121-3.282 8.115-0.299-0.121 0.791-2.788c0.129-0.462 0.105-0.816-0.071-1.06-0.176-0.245-0.56-0.487-1.151-0.727v0l-22.225-8.987c-0.363 0.056-0.654 0.192-0.871 0.408-0.215 0.21-0.424 0.564-0.625 1.062v0l-0.687 1.7-0.299-0.121 2.56-6.331 25.434-0.32 0.06-0.149-18.455-16.937 2.413-5.967z" fill="red" data-fill-palette-color="primary"></path><path d="M72.316 46.802l2.814-1.794 0.204 0.249-7.578 6.199-0.204-0.249 2.293-2.384-9.388-5.542-7.484 6.123 3.028 8.935c0.1 0.292 0.209 0.51 0.328 0.656v0c0.187 0.229 0.386 0.335 0.598 0.318 0.212-0.017 0.506-0.15 0.884-0.399v0l2.015-1.387 0.204 0.249-6.588 5.389-0.204-0.249 1.603-1.572c0.485-0.457 0.768-0.858 0.851-1.203 0.082-0.345 0.019-0.809-0.19-1.393v0l-8.94-26.392 0.561-0.459zM52.758 48.76l7.11-5.817-11.178-6.602-0.125 0.102z" fill="red" data-fill-palette-color="primary"></path><path d="M112.621 3.464c1.858 0.701 3.475 1.908 4.851 3.62 1.374 1.706 2.377 3.785 3.006 6.237v0c0.63 2.452 0.764 4.796 0.403 7.031-0.362 2.235-1.183 4.124-2.465 5.667v0c-0.816 0.979-1.835 1.803-3.057 2.47-1.214 0.672-2.761 1.25-4.64 1.733v0l-10.293 2.645-0.08-0.313 3.093-1.117-6.542-25.462-3.251 0.502-0.08-0.312 10.292-2.644c3.506-0.901 6.426-0.92 8.763-0.057zM116.86 25.711c0.549-1.264 0.813-2.934 0.793-5.008-0.025-2.067-0.339-4.274-0.942-6.622v0c-0.59-2.296-1.335-4.264-2.235-5.905-0.905-1.633-1.926-2.854-3.063-3.664v0c-0.941-0.666-1.984-1.029-3.129-1.088-1.147-0.066-2.699 0.153-4.657 0.655v0l-3.795 0.975 6.62 25.765 3.795-0.975c2.062-0.53 3.567-1.093 4.516-1.691 0.941-0.602 1.64-1.416 2.097-2.442z" fill="red" data-fill-palette-color="primary"></path><path d="M185.526 5.944l-3.276-0.393-5.668 25.671 3.139 1.013-0.07 0.314-9.599-2.119 0.069-0.315 3.461 0.444 2.921-13.229-12.993-2.868-2.921 13.229 3.326 1.054-0.07 0.314-9.59-2.117 0.07-0.315 3.264 0.401 5.668-25.671-3.127-1.02 0.069-0.315 9.59 2.117-0.069 0.315-3.463-0.435-2.611 11.823 12.993 2.869 2.611-11.823-3.324-1.064 0.069-0.314 9.6 2.119z" fill="red" data-fill-palette-color="primary"></path><path d="M223.395 59.899l2.283 2.434-0.207 0.247-7.494-6.302 0.208-0.246 2.766 1.812 3.711-10.25-7.401-6.224-8.222 4.628c-0.268 0.152-0.463 0.3-0.583 0.444v0c-0.19 0.226-0.257 0.442-0.202 0.647 0.056 0.205 0.241 0.47 0.555 0.795v0l1.736 1.723-0.207 0.247-6.515-5.478 0.208-0.247 1.841 1.285c0.539 0.392 0.986 0.596 1.34 0.614 0.354 0.017 0.799-0.131 1.334-0.445v0l24.284-13.665 0.555 0.467zM217.855 41.04l7.03 5.913 4.422-12.207-0.124-0.103z" fill="red" data-fill-palette-color="primary"></path><path d="M279.704 103.198l-1.668-3.066-24.156 10.374 1.085 3.316-0.297 0.127-3.879-9.033 0.296-0.127 1.579 2.885 22.361-9.603-0.064-0.148-27.326 1.255-0.155-0.361 19.323-19.994-0.064-0.148-20.741 8.907c-0.586 0.252-0.965 0.502-1.136 0.751-0.171 0.249-0.187 0.603-0.048 1.062v0l0.834 2.733-0.296 0.127-3.454-8.043 0.296-0.127 1.424 2.524c0.237 0.417 0.505 0.649 0.803 0.696 0.298 0.047 0.74-0.055 1.327-0.306v0l22.027-9.46c0.216-0.297 0.324-0.599 0.323-0.906 0.002-0.301-0.102-0.698-0.314-1.191v0l-0.723-1.685 0.296-0.127 2.695 6.275-17.677 18.29 0.064 0.148 25.021-1.186 2.54 5.914z" fill="red" data-fill-palette-color="primary"></path><path d="M47.126 202.117l-1.601-3.1-24.372 9.855 1.013 3.339-0.299 0.12-3.685-9.113 0.298-0.121 1.517 2.918 22.561-9.123-0.061-0.15-27.347 0.672-0.147-0.364 19.745-19.578-0.06-0.149-20.926 8.462c-0.591 0.239-0.975 0.481-1.152 0.726-0.176 0.245-0.2 0.599-0.071 1.061v0l0.776 2.75-0.299 0.121-3.281-8.114 0.298-0.121 1.37 2.553c0.229 0.422 0.491 0.66 0.788 0.714 0.297 0.054 0.741-0.039 1.333-0.278v0l22.224-8.987c0.222-0.293 0.336-0.592 0.343-0.899 0.009-0.301-0.087-0.7-0.289-1.198v0l-0.687-1.7 0.299-0.121 2.56 6.331-18.063 17.909 0.06 0.149 25.041-0.652 2.413 5.967z" fill="red" data-fill-palette-color="primary"></path><path d="M62.497 255.582l2.316 2.402-0.204 0.25-7.578-6.199 0.204-0.25 2.791 1.775 3.571-10.3-7.484-6.122-8.158 4.739c-0.266 0.155-0.459 0.306-0.578 0.451v0c-0.187 0.229-0.251 0.445-0.192 0.65 0.059 0.204 0.247 0.467 0.565 0.788v0l1.759 1.699-0.204 0.249-6.588-5.389 0.204-0.249 1.859 1.26c0.544 0.385 0.994 0.583 1.348 0.595 0.354 0.012 0.797-0.142 1.328-0.462v0l24.096-13.994 0.561 0.46zM56.702 236.8l7.11 5.816 4.256-12.265-0.125-0.102z" fill="red" data-fill-palette-color="primary"></path><path d="M121.069 254.036c1.29 1.51 2.125 3.347 2.505 5.511 0.382 2.157 0.258 4.462-0.373 6.914v0c-0.63 2.452-1.642 4.57-3.036 6.354-1.394 1.784-3.025 3.043-4.891 3.777v0c-1.187 0.465-2.477 0.695-3.87 0.69-1.388 0.004-3.021-0.236-4.901-0.718v0l-10.292-2.645 0.08-0.312 3.249 0.512 6.542-25.462-3.09-1.127 0.08-0.312 10.292 2.644c3.506 0.901 6.074 2.292 7.705 4.174zM114.059 275.572c1.09-0.843 2.127-2.178 3.109-4.006 0.974-1.823 1.763-3.908 2.367-6.255v0c0.59-2.296 0.886-4.379 0.888-6.251-0.006-1.867-0.311-3.429-0.917-4.687v0c-0.503-1.037-1.242-1.858-2.217-2.462-0.973-0.611-2.439-1.167-4.396-1.671v0l-3.795-0.975-6.62 25.765 3.795 0.975c2.062 0.53 3.652 0.762 4.771 0.696 1.115-0.074 2.119-0.45 3.015-1.129z" fill="red" data-fill-palette-color="primary"></path><path d="M177.429 247.765l-3.137 1.023 5.668 25.671 3.274-0.403 0.069 0.315-9.6 2.119-0.069-0.314 3.326-1.054-2.921-13.229-12.993 2.868 2.921 13.229 3.461-0.444 0.069 0.315-9.59 2.117-0.069-0.315 3.129-1.01-5.668-25.671-3.266 0.391-0.07-0.315 9.59-2.117 0.07 0.314-3.324 1.064 2.61 11.823 12.993-2.869-2.61-11.823-3.463 0.435-0.07-0.315 9.6-2.119z" fill="red" data-fill-palette-color="primary"></path><path d="M233.375 242.35l2.789-1.832 0.208 0.247-7.493 6.301-0.208-0.247 2.261-2.414-9.462-5.414-7.401 6.223 3.149 8.894c0.104 0.29 0.216 0.507 0.337 0.651v0c0.19 0.226 0.391 0.329 0.602 0.309 0.211-0.02 0.504-0.157 0.879-0.41v0l1.996-1.414 0.207 0.246-6.514 5.478-0.208-0.246 1.582-1.594c0.479-0.464 0.757-0.869 0.834-1.215 0.078-0.346 0.008-0.81-0.208-1.39v0l-9.298-26.268 0.555-0.467zM213.845 244.573l7.031-5.912-11.267-6.45-0.123 0.104z" fill="red" data-fill-palette-color="primary"></path><path d="M245.196 172.364l-1.075 3.32 24.157 10.374 1.658-3.07 0.296 0.127-3.879 9.033-0.296-0.127 1.004-3.131-22.36-9.603-0.064 0.148 19.727 18.952-0.155 0.361-27.804-0.244-0.064 0.148 20.741 8.907c0.586 0.252 1.028 0.354 1.326 0.306 0.298-0.047 0.566-0.28 0.804-0.696v0l1.407-2.487 0.297 0.127-3.454 8.043-0.296-0.127 0.849-2.77c0.139-0.459 0.123-0.813-0.048-1.062-0.171-0.249-0.549-0.499-1.135-0.751v0l-22.028-9.46c-0.364 0.048-0.657 0.178-0.88 0.39-0.22 0.205-0.436 0.555-0.647 1.048v0l-0.724 1.685-0.296-0.128 2.695-6.275 25.435 0.224 0.063-0.148-18.089-17.327 2.539-5.914z" fill="red" data-fill-palette-color="primary"></path><path d="M2.271 145.19c0-5.95 4.824-10.774 10.774-10.773 5.95 0 10.774 4.824 10.774 10.773 0 5.95-4.824 10.774-10.774 10.774-5.95 0-10.774-4.824-10.774-10.774z" fill="red" data-fill-palette-color="primary"></path><path d="M256.105 145.19c0-5.95 4.824-10.774 10.774-10.773 5.95 0 10.774 4.824 10.773 10.773 0 5.95-4.824 10.774-10.773 10.774-5.95 0-10.774-4.824-10.774-10.774z" fill="red" data-fill-palette-color="primary"></path></g></svg></g></svg></g></svg></g><g></g></svg></g><defs></defs></svg><rect width="280" height="280" fill="none" stroke="none" visibility="hidden"></rect></g></svg></g></svg>